<svg fill="none" height="128" viewBox="0 0 132 128" width="132" xmlns="http://www.w3.org/2000/svg" xmlns:xlink="http://www.w3.org/1999/xlink"><filter id="a" color-interpolation-filters="sRGB" filterUnits="userSpaceOnUse" height="128" width="128" x="2" y="0"><feFlood flood-opacity="0" result="BackgroundImageFix"/><feBlend in="SourceGraphic" in2="BackgroundImageFix" mode="normal" result="shape"/><feColorMatrix in="SourceAlpha" result="hardAlpha" type="matrix" values="0 0 0 0 0 0 0 0 0 0 0 0 0 0 0 0 0 0 127 0"/><feOffset dx="-6" dy="-6"/><feComposite in2="hardAlpha" k2="-1" k3="1" operator="arithmetic"/><feColorMatrix type="matrix" values="0 0 0 0 0 0 0 0 0 0 0 0 0 0 0 0 0 0 0.04 0"/><feBlend in2="shape" mode="normal" result="effect1_innerShadow_102_946"/></filter><linearGradient id="b" gradientUnits="userSpaceOnUse" x1="33.2304" x2="33.2304" y1="74.9563" y2="36.3592"><stop offset=".317708" stop-color="#121212"/><stop offset="1" stop-color="#474747"/></linearGradient><linearGradient id="c" gradientUnits="userSpaceOnUse" x1="98.7656" x2="98.7656" y1="36.356" y2="74.951"><stop offset="0" stop-color="#474747"/><stop offset=".682292" stop-color="#121212"/></linearGradient><g filter="url(#a)"><path d="m130 30.2436v67.4688c.004 3.9756-.776 7.9136-2.295 11.5886-1.519 3.674-3.747 7.013-6.557 9.826s-6.147 5.044-9.82 6.567c-3.673 1.522-7.61 2.306-11.5863 2.306h-67.4687c-8.0252-.004-15.7208-3.193-21.3968-8.866-5.67599-5.673-8.86841-13.367-8.87619-21.3923v-67.4688c-.00385-3.9753.77606-7.9124 2.29514-11.5861 1.51907-3.6736 3.7475-7.0118 6.55785-9.82347 2.8103-2.81168 6.1473-5.04172 9.8203-6.56258 3.6729-1.520854 7.6096-2.30267622 11.585-2.30074644h67.4688c3.9739-.00192658 7.9089.77881944 11.5809 2.29765644 3.671 1.51885 7.008 3.74604 9.819 6.55442 2.811 2.80842 5.042 6.14292 6.564 9.81332 1.523 3.6704 2.307 7.6046 2.309 11.5782z" fill="#fcbc34"/></g><path d="m66.3033 49.8949-3.4908 18.3486 3.4908 2.7868z" fill="#000" opacity=".4"/><path d="m66.5423 101h-.7533c-9.7033-.218-20.795-5.2904-23.7045-16.1473-.0667-.1805-.0944-.3727-.0814-.5643.0131-.1916.0666-.3785.1572-.5486s.2163-.3197.369-.4393c.1526-.1196.329-.2066.5178-.2553s.3858-.0582.5785-.0277c.1927.0304.3768.1001.5406.2046.1637.1044.3036.2414.4105.402.107.1607.1787.3415.2106.531 2.555 9.4616 12.4208 13.8945 21.0608 14.0834 8.2412.1599 19.0375-3.8408 22.4639-14.5669.1797-.2534.4368-.4438.734-.5436.2971-.0999.6189-.1039.9185-.0115.2996.0923.5616.2762.7478.525s.287.5495.2877.8585c-3.1458 9.8105-12.7015 16.5-24.4577 16.5z" fill="#000"/><path clip-rule="evenodd" d="m11.6248 39.6789c-4.65712 4.4263-2.22539 27.015 7.4721 32.7102 3.2423 1.8885 15.6662 3.7328 21.1782 1.6229 10.3164-3.9393 16.86-18.3395 16.86-25.2297 0-5.0755-9.948-10.8592-18.1717-11.8034-8.0173-.9443-23.1088-1.3279-27.3386 2.7z" fill="url(#b)" fill-rule="evenodd"/><path clip-rule="evenodd" d="m120.375 39.6789c4.657 4.4263 2.24 27.015-7.472 32.7102-3.228 1.8885-15.6664 3.7328-21.1783 1.6229-10.3164-3.9393-16.86-18.2657-16.86-25.2297 0-5.0755 9.948-10.8592 18.1717-11.8034 7.9736-.9443 23.1086-1.3279 27.3386 2.7z" fill="url(#c)" fill-rule="evenodd"/><path d="m131.694 34.3379c-.022-.1229-.079-.2366-.166-.3261s-.199-.1507-.321-.1756c-8.12-1.3869-30.463-2.9508-42.4446-.7082-3.5788.7281-7.0141 2.039-10.169 3.8804l-2.3728 1.2098c-3.1488 1.6386-6.6666 2.4365-10.2133 2.3165-3.5517.1225-7.0749-.6754-10.228-2.3165l-2.3728-1.2098c-3.1538-1.8438-6.5895-3.1548-10.1691-3.8804-11.9671-2.1984-34.30957-.6787-42.444832.7082-.122148.0215-.234077.082-.319075.1724s-.138506.2059-.152535.3293c-.427944 3.0835-.427944 6.2116 0 9.2951.021472.1126.074425.2167.152697.3003s.178644.1432.289437.1719c0 0 2.947558.8262 4.008678 9.0886.82532 6.5361 4.20027 22.0281 17.68533 24.492 3.6322.6184 7.31.9293 10.9944.9296 1.6257.0196 3.2508-.074 4.8635-.2804 14.9736-2.1836 19.616-15.6247 21.8561-22.1313.2948-.8558.5453-1.5787.7811-2.1542 1.4738-3.5557 2.6381-3.9393 5.0551-3.9393 1.9012 0 3.5813.295 5.055 3.9393.2211.5755.4864 1.3132.7811 2.1542 2.2255 6.4623 6.8826 19.9034 21.8414 22.1313 5.2862.498 10.6152.2796 15.8432-.6492 13.5-2.4639 16.889-17.9559 17.685-24.492 1.032-8.2624 3.965-9.0739 3.98-9.0886.116-.0237.222-.0811.306-.165.084-.084.141-.1908.165-.3072.438-3.0822.448-6.2102.03-9.2951zm-9.875 18.5756c-.766 6.7132-3.655 15.6985-9.211 18.9592-3.08 1.8148-15.2534 3.659-20.6327 1.5934-10.2575-3.9098-16.5211-18.192-16.5211-24.6838 0-4.4263 9.0785-10.2247 17.6853-11.228 3.5913-.4107 7.2025-.6176 10.8175-.6197 6.809 0 13.544.7967 16.035 3.1722 1.783 1.7115 2.52 6.8607 1.827 12.8067zm-65.2734-4.1312c0 6.4918-6.2488 20.774-16.4768 24.6838-5.4235 2.0656-17.5969.2214-20.6329-1.5934-5.5562-3.2607-8.43-12.246-9.2111-18.9592-.69272-5.9017 0-11.0952 1.8569-12.8067 2.4907-2.3755 9.2406-3.1722 16.0347-3.1722 3.6147.0015 7.2263.2084 10.8176.6197 8.5479 1.0033 17.6116 6.7722 17.6116 11.228z" fill="#000"/></svg>